<?xml version="1.0" encoding="utf-8"?>
<!-- Generator: Adobe Illustrator 26.0.3, SVG Export Plug-In . SVG Version: 6.00 Build 0)  -->
<svg version="1.0" id="Layer_1" xmlns="http://www.w3.org/2000/svg" xmlns:xlink="http://www.w3.org/1999/xlink" x="0px" y="0px"
	 viewBox="0 0 798 636" style="enable-background:new 0 0 798 636;" xml:space="preserve">
<style type="text/css">
	.st0{fill:none;}
	.st1{fill:#010101;}
</style>
<g>
	<path class="st0" d="M401,268.2c-27.5,0-49.8,22.3-49.8,49.8s22.3,49.8,49.8,49.8s49.7-22.3,49.8-49.8
		C450.8,290.5,428.5,268.2,401,268.2z"/>
	<path class="st0" d="M463.1,188.3H338c-36,0-65.1,29.1-65.1,65.1v125.1c0,35.9,29.2,65.1,65.1,65.1h125.1
		c35.9,0,65.1-29.1,65.1-65.1V253.4C528.2,217.5,499.1,188.3,463.1,188.3z M401.1,395.7c-42.9,0-77.7-34.8-77.7-77.7
		s34.8-77.7,77.7-77.7s77.7,34.8,77.7,77.7S444,395.7,401.1,395.7z M483.3,253.6c-10.2,0-18.5-8.3-18.5-18.5s8.3-18.5,18.5-18.5
		s18.5,8.3,18.5,18.5S493.5,253.6,483.3,253.6z"/>
	<path class="st0" d="M398.8,96.9c-120.9,0-219,98-219,219s98,219,219,219s219-98,219-219S519.7,96.9,398.8,96.9z M463.1,473.3H338
		c-52.3,0-94.8-42.4-94.8-94.8V253.4l0,0c0-52.3,42.4-94.8,94.8-94.8h125.1l0,0c52.3,0,94.8,42.4,94.8,94.8v125.1
		C557.9,430.9,515.4,473.3,463.1,473.3z"/>
	<path class="st1" d="M399,68c-137.8,0-250,112.2-250,250s112.2,250,250,250s250-112.1,250-250S536.9,68,399,68z M398.8,534.9
		c-120.9,0-219-98-219-219s98-219,219-219s219,98,219,219S519.7,534.9,398.8,534.9z"/>
	<circle class="st1" cx="483.3" cy="235.1" r="18.5"/>
	<path class="st1" d="M401,240.3c-42.9,0-77.7,34.8-77.7,77.7s34.8,77.7,77.7,77.7s77.7-34.8,77.7-77.7S443.9,240.3,401,240.3z
		 M401,367.8c-27.5,0-49.8-22.3-49.8-49.8c0-27.5,22.3-49.8,49.8-49.8s49.8,22.3,49.8,49.8S428.5,367.7,401,367.8z"/>
	<path class="st1" d="M557.8,253.4c0-52.3-42.4-94.8-94.8-94.8l0,0H338c-52.3,0-94.8,42.4-94.8,94.8l0,0v125.1
		c0,52.3,42.4,94.8,94.8,94.8h125.1c52.3,0,94.8-42.4,94.8-94.8L557.8,253.4z M528.2,378.5c0,35.9-29.2,65.1-65.1,65.1H338
		c-35.9,0-65.1-29.1-65.1-65.1V253.4c0-36,29.1-65.1,65.1-65.1h125.1c36,0,65.1,29.1,65.1,65.1V378.5z"/>
</g>
</svg>
